<?xml version="1.0" encoding="utf-8"?>
<!-- Generator: Adobe Illustrator 22.1.0, SVG Export Plug-In . SVG Version: 6.00 Build 0)  -->
<svg version="1.1" id="图层_1" xmlns="http://www.w3.org/2000/svg" xmlns:xlink="http://www.w3.org/1999/xlink" x="0px" y="0px"
	 viewBox="0 0 595.3 841.9" style="enable-background:new 0 0 595.3 841.9;" xml:space="preserve">
<style type="text/css">
	.st0{fill:#191874;}
	.st1{fill:url(#SVGID_1_);}
	.st2{fill:#FFFFFF;}
</style>
<path class="st0" d="M552.5,429.6c0,55,0.1,110,0,165c-0.1,39.8-24.7,74.1-62,85.8c-8.9,2.8-18.6,4.5-27.9,4.5
	c-110.7,0.3-221.3,0.3-332,0.1c-50.1-0.1-89.7-40.1-89.7-90.2c-0.1-110.5-0.1-221,0-331.5c0.1-49.8,39.6-89.8,89.5-89.9
	c110.8-0.3,221.7-0.2,332.5,0c50.1,0.1,89.5,39.9,89.7,90.2C552.7,318.9,552.5,374.3,552.5,429.6z"/>
<linearGradient id="SVGID_1_" gradientUnits="userSpaceOnUse" x1="153.8895" y1="309.9346" x2="343.3336" y2="419.3102">
	<stop  offset="0" style="stop-color:#FFFFFF"/>
	<stop  offset="0.2466" style="stop-color:#FCFCFD"/>
	<stop  offset="0.4166" style="stop-color:#F3F3F8"/>
	<stop  offset="0.5635" style="stop-color:#E4E4EF"/>
	<stop  offset="0.6974" style="stop-color:#CECEE2"/>
	<stop  offset="0.8223" style="stop-color:#B2B3D1"/>
	<stop  offset="0.9391" style="stop-color:#9091BD"/>
	<stop  offset="1" style="stop-color:#7B7CB0"/>
</linearGradient>
<path class="st1" d="M322.9,430.7c-6.7-1.4-12.6-2.3-18.3-3.9c-25-6.9-42.3-26.5-43.3-49.6c-1.3-31.4-2-62.9-3.1-94.4
	c-0.2-4.5-0.5-9-1.4-13.4c-0.7-3.7-3-6.2-7.4-5.8c-21,2-42.1,3.5-63.1,5.9c-11.5,1.3-16.5,8.7-15.9,20.3
	c2.1,40.2,8.7,79.8,19.6,118.5c7,24.6,22.1,43.1,48,50.6c22.7,6.6,45.8,10.3,69.5,9.8c2.1,0,4.2,0,7.5,0
	C318.7,461.4,321.2,449.1,322.9,430.7z"/>
<path class="st2" d="M158.6,591.2c28.1,10.4,54,4.2,77.7-11.1c33.7-21.8,55.6-53.5,71.1-90c2.8-6.7,5.1-13.6,7.9-21.4
	c2.2-7.7,7.4-31.2,8.1-38.1c1.4-12.8,3.7-24.8,3.9-36.9c0.3-22.8-0.7-45.6-1-68.4c-0.1-9.5-0.6-19.1,0.3-28.5
	c1.6-16.5,11.1-28.6,24.5-37.6c19.1-12.8,40.7-14.7,62.8-13.1c5.5,0.4,10.9,1.4,16.3,2.4c10.6,2.1,14.2,6.1,13.2,17
	c-1.5,16.7-3.5,33.4-6.1,50c-9.5,60.8-24.4,120.3-44.8,178.3c-9.6,27.3-21.5,53.6-40.3,75.9c-34.3,40.6-78,60.2-131.3,56.8
	c-18.2-1.1-35.4-6.2-50.9-16.1C161.6,605.3,157.9,599,158.6,591.2z"/>
</svg>
